<svg xmlns="http://www.w3.org/2000/svg" width="100%" height="100%" viewBox="-100 -100 500 500">
 <rect x="132.301260" y="83.245627" width="2.965907" height="3.058309" stroke="#80080" fill="#008033" />
 <rect x="145.892750" y="82.815602" width="3.444835" height="1.275669" stroke="#80080" fill="#008033" />
 <rect x="230.687295" y="118.405950" width="3.698961" height="2.143312" stroke="#80080" fill="#008033" />
 <rect x="203.330035" y="87.452401" width="2.938142" height="2.886326" stroke="#80080" fill="#008033" />
 <rect x="159.424949" y="99.401432" width="2.788010" height="1.612184" stroke="#80080" fill="#008033" />
 <rect x="240.331994" y="72.453941" width="2.972138" height="3.133902" stroke="#80080" fill="#008033" />
 <rect x="84.168863" y="105.346928" width="2.744535" height="1.872670" stroke="#80080" fill="#008033" />
 <rect x="198.806924" y="111.028054" width="2.307967" height="3.782386" stroke="#80080" fill="#008033" />
 <rect x="137.967113" y="120.318676" width="3.902541" height="1.057176" stroke="#80080" fill="#008033" />
 <rect x="140.295545" y="129.067021" width="2.063046" height="2.270144" stroke="#80080" fill="#008033" />
 <rect x="218.856454" y="108.945243" width="3.334461" height="1.365585" stroke="#80080" fill="#008033" />
 <rect x="275.537423" y="84.953119" width="2.159828" height="2.947670" stroke="#80080" fill="#008033" />
 <rect x="268.471205" y="71.503625" width="2.263652" height="3.433449" stroke="#80080" fill="#008033" />
 <rect x="238.894958" y="117.937544" width="2.573480" height="3.133631" stroke="#80080" fill="#008033" />
 <rect x="199.211881" y="75.071532" width="2.444510" height="3.081148" stroke="#80080" fill="#008033" />
 <rect x="258.130678" y="86.789103" width="2.161784" height="2.948341" stroke="#80080" fill="#008033" />
 <rect x="90.945345" y="102.853452" width="1.679805" height="2.611348" stroke="#80080" fill="#008033" />
 <rect x="125.911323" y="73.624385" width="1.064469" height="3.412401" stroke="#80080" fill="#008033" />
 <rect x="92.429704" y="127.585223" width="2.542794" height="2.644606" stroke="#80080" fill="#008033" />
 <rect x="234.262538" y="109.473669" width="1.176886" height="1.550086" stroke="#80080" fill="#008033" />
 <rect x="88.929315" y="106.631699" width="2.202234" height="2.948256" stroke="#80080" fill="#008033" />
 <rect x="202.981246" y="105.382892" width="3.093978" height="2.071036" stroke="#80080" fill="#008033" />
 <rect x="156.570928" y="76.781404" width="2.728525" height="1.768007" stroke="#80080" fill="#008033" />
 <rect x="131.625767" y="95.768390" width="3.652144" height="1.401365" stroke="#80080" fill="#008033" />
 <rect x="171.061687" y="80.406367" width="3.145975" height="1.449178" stroke="#80080" fill="#008033" />
 <rect x="110.772561" y="78.705811" width="1.205647" height="2.983171" stroke="#80080" fill="#008033" />
 <rect x="93.010587" y="92.558081" width="1.851260" height="2.455843" stroke="#80080" fill="#008033" />
 <rect x="174.231254" y="100.050210" width="2.705545" height="1.977096" stroke="#80080" fill="#008033" />
 <rect x="189.199342" y="113.942522" width="1.109974" height="3.439482" stroke="#80080" fill="#008033" />
 <rect x="90.301457" y="110.957354" width="2.702037" height="1.221533" stroke="#80080" fill="#008033" />
 <rect x="152.435496" y="105.664485" width="3.218599" height="3.766157" stroke="#80080" fill="#008033" />
 <rect x="236.089053" y="119.725377" width="3.630553" height="2.905993" stroke="#80080" fill="#008033" />
 <rect x="117.349108" y="112.475395" width="3.897399" height="3.698748" stroke="#80080" fill="#008033" />
 <rect x="163.978007" y="79.035787" width="3.261364" height="3.297419" stroke="#80080" fill="#008033" />
 <rect x="228.838331" y="130.781411" width="3.866215" height="2.814467" stroke="#80080" fill="#008033" />
 <rect x="199.169036" y="97.164760" width="1.386401" height="3.960997" stroke="#80080" fill="#008033" />
 <rect x="170.606641" y="112.152949" width="1.043432" height="3.858987" stroke="#80080" fill="#008033" />
 <rect x="249.335166" y="119.002868" width="1.655128" height="2.561477" stroke="#80080" fill="#008033" />
 <rect x="104.320893" y="95.741070" width="3.175960" height="3.119297" stroke="#80080" fill="#008033" />
 <rect x="240.151386" y="71.421228" width="1.991203" height="1.922633" stroke="#80080" fill="#008033" />
 <rect x="169.711999" y="131.807601" width="3.460530" height="2.539455" stroke="#AA0088" fill="#FFCC00" />
 <rect x="113.898286" y="114.443961" width="3.430881" height="3.118227" stroke="#AA0088" fill="#FFCC00" />
 <rect x="113.718982" y="161.533220" width="1.749800" height="2.100750" stroke="#AA0088" fill="#FFCC00" />
 <rect x="165.758629" y="163.111181" width="2.584162" height="3.366264" stroke="#AA0088" fill="#FFCC00" />
 <rect x="87.751816" y="152.782673" width="3.994310" height="1.546168" stroke="#AA0088" fill="#FFCC00" />
 <rect x="167.886066" y="106.563853" width="1.626924" height="2.497662" stroke="#AA0088" fill="#FFCC00" />
 <rect x="122.034345" y="146.218839" width="2.517378" height="2.336417" stroke="#AA0088" fill="#FFCC00" />
 <rect x="131.664401" y="147.726928" width="3.302741" height="2.372359" stroke="#AA0088" fill="#FFCC00" />
 <rect x="78.368106" y="108.368056" width="1.858021" height="2.865511" stroke="#AA0088" fill="#FFCC00" />
 <rect x="149.655636" y="118.271762" width="2.040426" height="1.782737" stroke="#AA0088" fill="#FFCC00" />
 <rect x="64.728147" y="128.586966" width="2.940560" height="2.854254" stroke="#AA0088" fill="#FFCC00" />
 <rect x="58.833047" y="127.296052" width="2.594869" height="3.601972" stroke="#AA0088" fill="#FFCC00" />
 <rect x="143.926810" y="152.694573" width="3.710129" height="3.292937" stroke="#AA0088" fill="#FFCC00" />
 <rect x="162.854047" y="112.480002" width="2.472784" height="3.879141" stroke="#AA0088" fill="#FFCC00" />
 <rect x="111.215065" y="179.685447" width="3.985916" height="1.926230" stroke="#AA0088" fill="#FFCC00" />
 <rect x="132.535909" y="100.902483" width="3.049076" height="2.926752" stroke="#AA0088" fill="#FFCC00" />
 <rect x="126.169270" y="120.968351" width="1.848115" height="3.762103" stroke="#AA0088" fill="#FFCC00" />
 <rect x="125.913882" y="178.064129" width="3.256321" height="3.744386" stroke="#AA0088" fill="#FFCC00" />
 <rect x="160.038927" y="170.302043" width="1.659042" height="3.181459" stroke="#AA0088" fill="#FFCC00" />
 <rect x="55.423548" y="172.636098" width="3.862712" height="3.639613" stroke="#AA0088" fill="#FFCC00" />
 <rect x="112.413771" y="134.751514" width="2.874560" height="2.234071" stroke="#AA0088" fill="#FFCC00" />
 <rect x="54.246897" y="142.430620" width="1.674853" height="2.115179" stroke="#AA0088" fill="#FFCC00" />
 <rect x="71.974631" y="134.691495" width="1.623291" height="2.534200" stroke="#AA0088" fill="#FFCC00" />
 <rect x="174.533060" y="172.186608" width="2.825936" height="2.930706" stroke="#AA0088" fill="#FFCC00" />
 <rect x="81.823837" y="166.575409" width="1.856857" height="2.318294" stroke="#AA0088" fill="#FFCC00" />
 <rect x="63.249390" y="153.206052" width="2.127683" height="2.690065" stroke="#AA0088" fill="#FFCC00" />
 <rect x="164.075226" y="112.215785" width="3.626412" height="2.351343" stroke="#AA0088" fill="#FFCC00" />
 <rect x="125.350615" y="101.625171" width="2.957451" height="3.795394" stroke="#AA0088" fill="#FFCC00" />
 <rect x="85.761656" y="171.954005" width="2.247872" height="3.805403" stroke="#AA0088" fill="#FFCC00" />
 <rect x="112.518882" y="131.335140" width="2.511610" height="1.909576" stroke="#AA0088" fill="#FFCC00" />
 <rect x="155.194653" y="179.532346" width="1.566602" height="2.309035" stroke="#AA0088" fill="#FFCC00" />
 <rect x="138.589806" y="102.534774" width="2.353116" height="3.208277" stroke="#AA0088" fill="#FFCC00" />
 <rect x="110.896655" y="130.643368" width="1.821622" height="2.421042" stroke="#AA0088" fill="#FFCC00" />
 <rect x="84.091911" y="103.645601" width="2.783447" height="3.811978" stroke="#AA0088" fill="#FFCC00" />
 <rect x="106.619740" y="139.746013" width="1.512293" height="2.007100" stroke="#AA0088" fill="#FFCC00" />
 <rect x="96.372560" y="138.591700" width="2.904319" height="3.312555" stroke="#AA0088" fill="#FFCC00" />
 <rect x="97.190145" y="121.866923" width="3.598068" height="1.885858" stroke="#AA0088" fill="#FFCC00" />
 <rect x="168.719864" y="157.577505" width="2.842659" height="2.420615" stroke="#AA0088" fill="#FFCC00" />
 <rect x="142.656106" y="125.909269" width="3.210929" height="3.275568" stroke="#AA0088" fill="#FFCC00" />
 <rect x="151.674885" y="138.054437" width="2.322000" height="2.544340" stroke="#AA0088" fill="#FFCC00" />
 <rect x="196.309582" y="52.606838" width="3.545125" height="3.973373" stroke="#80080" fill="#008033" />
 <rect x="190.633138" y="43.593880" width="2.804431" height="1.710035" stroke="#80080" fill="#008033" />
 <rect x="218.789777" y="47.733765" width="1.676346" height="3.312832" stroke="#80080" fill="#008033" />
 <rect x="180.846907" y="34.841748" width="2.940719" height="2.112068" stroke="#80080" fill="#008033" />
 <rect x="211.179873" y="62.641030" width="2.865850" height="3.169971" stroke="#80080" fill="#008033" />
 <rect x="210.646013" y="78.544647" width="1.726689" height="2.646432" stroke="#80080" fill="#008033" />
 <rect x="192.527346" y="72.018590" width="2.941141" height="2.843213" stroke="#80080" fill="#008033" />
 <rect x="219.301753" y="77.384867" width="1.792344" height="1.815410" stroke="#80080" fill="#008033" />
 <rect x="171.299808" y="60.647673" width="2.570513" height="1.776151" stroke="#80080" fill="#008033" />
 <rect x="161.123811" y="64.315133" width="2.643703" height="3.421743" stroke="#80080" fill="#008033" />
 <rect x="170.792435" y="70.453850" width="2.580645" height="2.070866" stroke="#80080" fill="#008033" />
 <rect x="166.754614" y="57.548593" width="2.895497" height="3.450207" stroke="#80080" fill="#008033" />
 <rect x="204.113654" y="31.657059" width="1.850181" height="2.298971" stroke="#80080" fill="#008033" />
 <rect x="177.092604" y="34.678219" width="3.074010" height="2.385668" stroke="#80080" fill="#008033" />
 <rect x="205.233479" y="52.168131" width="2.048931" height="3.878329" stroke="#80080" fill="#008033" />
 <rect x="175.201305" y="37.698359" width="2.259420" height="1.686454" stroke="#80080" fill="#008033" />
 <rect x="172.268378" y="37.399118" width="3.594933" height="1.531418" stroke="#80080" fill="#008033" />
 <rect x="195.077849" y="72.191082" width="2.183016" height="2.591191" stroke="#80080" fill="#008033" />
 <rect x="175.388552" y="39.517283" width="3.423566" height="3.401350" stroke="#80080" fill="#008033" />
 <rect x="222.326938" y="59.748557" width="3.820357" height="3.986238" stroke="#80080" fill="#008033" />
 <rect x="176.882514" y="47.008086" width="2.335346" height="3.177453" stroke="#80080" fill="#008033" />
 <rect x="214.656507" y="77.996790" width="2.772232" height="1.928307" stroke="#80080" fill="#008033" />
 <rect x="158.881559" y="50.327513" width="3.838825" height="3.635951" stroke="#80080" fill="#008033" />
 <rect x="182.669617" y="73.176665" width="3.246585" height="1.959770" stroke="#80080" fill="#008033" />
 <rect x="172.651773" y="77.233461" width="2.670133" height="2.768857" stroke="#80080" fill="#008033" />
 <rect x="171.493341" y="55.389694" width="2.658515" height="2.017561" stroke="#80080" fill="#008033" />
 <rect x="175.455719" y="70.204406" width="2.410498" height="2.070346" stroke="#80080" fill="#008033" />
 <rect x="182.104979" y="68.087885" width="1.812678" height="3.190090" stroke="#80080" fill="#008033" />
 <rect x="161.208741" y="63.413437" width="2.700651" height="1.616544" stroke="#80080" fill="#008033" />
 <rect x="167.435813" y="78.018993" width="3.657527" height="2.091296" stroke="#80080" fill="#008033" />
 <rect x="202.493184" y="42.354090" width="3.957770" height="3.559499" stroke="#80080" fill="#008033" />
 <rect x="163.772757" y="75.336455" width="1.826638" height="1.506818" stroke="#80080" fill="#008033" />
 <rect x="177.201990" y="46.056000" width="1.973904" height="1.542547" stroke="#80080" fill="#008033" />
 <rect x="176.295625" y="35.221601" width="3.886411" height="2.898617" stroke="#80080" fill="#008033" />
 <rect x="193.144547" y="39.440316" width="2.211334" height="1.704648" stroke="#80080" fill="#008033" />
 <rect x="220.347209" y="79.800519" width="2.966769" height="3.549052" stroke="#80080" fill="#008033" />
 <rect x="203.052760" y="44.244374" width="2.969477" height="2.830695" stroke="#80080" fill="#008033" />
 <rect x="191.416671" y="61.023442" width="1.698591" height="3.981904" stroke="#80080" fill="#008033" />
 <rect x="169.011471" y="47.493033" width="1.570581" height="1.907666" stroke="#80080" fill="#008033" />
 <rect x="158.220169" y="47.325191" width="2.758480" height="3.321993" stroke="#80080" fill="#008033" />
 <rect x="175.296293" y="143.484451" width="2.384280" height="1.948644" stroke="#AA0088" fill="#FFCC00" />
 <rect x="210.864826" y="112.328387" width="2.921802" height="2.125720" stroke="#AA0088" fill="#FFCC00" />
 <rect x="182.549716" y="150.146189" width="1.934295" height="1.913758" stroke="#AA0088" fill="#FFCC00" />
 <rect x="186.178413" y="143.111533" width="2.895874" height="1.809856" stroke="#AA0088" fill="#FFCC00" />
 <rect x="197.408619" y="122.238433" width="3.217771" height="2.079393" stroke="#AA0088" fill="#FFCC00" />
 <rect x="189.310155" y="143.387500" width="2.347482" height="1.930435" stroke="#AA0088" fill="#FFCC00" />
 <rect x="176.799798" y="147.337474" width="3.151994" height="3.637682" stroke="#AA0088" fill="#FFCC00" />
 <rect x="188.226620" y="118.390961" width="1.982651" height="2.043266" stroke="#AA0088" fill="#FFCC00" />
 <rect x="188.240300" y="135.635171" width="3.218870" height="2.199303" stroke="#AA0088" fill="#FFCC00" />
 <rect x="212.415690" y="120.461463" width="3.820148" height="2.502890" stroke="#AA0088" fill="#FFCC00" />
 <rect x="172.079547" y="138.705542" width="3.301877" height="3.344992" stroke="#AA0088" fill="#FFCC00" />
 <rect x="165.984934" y="117.741849" width="3.429274" height="3.269656" stroke="#AA0088" fill="#FFCC00" />
 <rect x="190.370767" y="138.951942" width="3.335176" height="3.322019" stroke="#AA0088" fill="#FFCC00" />
 <rect x="167.311604" y="127.353319" width="2.451932" height="3.518499" stroke="#AA0088" fill="#FFCC00" />
 <rect x="159.692661" y="100.351923" width="3.498293" height="3.566258" stroke="#AA0088" fill="#FFCC00" />
 <rect x="168.547659" y="127.096954" width="2.222547" height="2.172727" stroke="#AA0088" fill="#FFCC00" />
 <rect x="157.821465" y="149.797248" width="3.794175" height="3.916799" stroke="#AA0088" fill="#FFCC00" />
 <rect x="178.811786" y="114.713353" width="2.733778" height="3.142217" stroke="#AA0088" fill="#FFCC00" />
 <rect x="200.909108" y="127.058956" width="2.519021" height="2.309672" stroke="#AA0088" fill="#FFCC00" />
 <rect x="194.069035" y="119.705146" width="2.184811" height="2.467340" stroke="#AA0088" fill="#FFCC00" />
 <rect x="73.600163" y="98.469435" width="1.598526" height="1.878423" stroke="#C837AB" fill="#D387CD" />
 <rect x="118.273281" y="40.408686" width="3.816205" height="3.616583" stroke="#C837AB" fill="#D387CD" />
 <rect x="156.117333" y="94.689145" width="2.758854" height="1.654939" stroke="#C837AB" fill="#D387CD" />
 <rect x="252.243965" y="135.060317" width="2.980951" height="2.941740" stroke="#C837AB" fill="#D387CD" />
 <rect x="89.159076" y="128.193059" width="3.704942" height="3.904579" stroke="#C837AB" fill="#D387CD" />
 <rect x="90.492480" y="92.776214" width="2.249872" height="3.380635" stroke="#C837AB" fill="#D387CD" />
 <rect x="203.834478" y="115.233166" width="1.699418" height="3.955774" stroke="#C837AB" fill="#D387CD" />
 <rect x="154.672506" y="72.775621" width="2.220668" height="1.646155" stroke="#C837AB" fill="#D387CD" />
 <rect x="176.218919" y="129.283199" width="1.555588" height="3.869034" stroke="#C837AB" fill="#D387CD" />
 <rect x="63.543575" y="126.941282" width="3.054461" height="3.309746" stroke="#C837AB" fill="#D387CD" />
 <rect x="120.968796" y="66.979429" width="1.840284" height="3.991494" stroke="#C837AB" fill="#D387CD" />
 <rect x="47.699823" y="76.946026" width="3.708118" height="2.709342" stroke="#C837AB" fill="#D387CD" />
 <rect x="153.013845" y="117.550944" width="1.998117" height="2.200146" stroke="#C837AB" fill="#D387CD" />
 <rect x="111.119174" y="109.927659" width="1.633465" height="2.056624" stroke="#C837AB" fill="#D387CD" />
 <rect x="252.825511" y="57.869504" width="1.784833" height="3.366220" stroke="#C837AB" fill="#D387CD" />
 <rect x="235.682851" y="130.287055" width="3.976398" height="3.779208" stroke="#C837AB" fill="#D387CD" />
 <rect x="108.963406" y="115.978415" width="2.232848" height="2.002767" stroke="#C837AB" fill="#D387CD" />
 <rect x="227.668877" y="77.902220" width="2.510313" height="2.222371" stroke="#C837AB" fill="#D387CD" />
 <rect x="52.043401" y="79.167877" width="3.555193" height="3.585780" stroke="#C837AB" fill="#D387CD" />
 <rect x="191.655458" y="128.016849" width="1.959225" height="2.002499" stroke="#C837AB" fill="#D387CD" />
 <line x1="2.000000" y1="58.000000" x2="182.000000" y2="58.000000" stroke="#FFFF00" />
 <line x1="157.000000" y1="18.000000" x2="162.000000" y2="108.000000" stroke="#FFFF00" />
 <line x1="77.000000" y1="30.000000" x2="77.000000" y2="58.000000" stroke="#DDFF55" />
 <line x1="90.000000" y1="114.000000" x2="90.000000" y2="58.000000" stroke="#DDFF55" />
 <line x1="190.000000" y1="91.000000" x2="157.000000" y2="91.000000" stroke="#DDFF55" />
 <line x1="25.000000" y1="28.000000" x2="50.000000" y2="85.000000" stroke="#0000FF" />
 <line x1="25.000000" y1="28.000000" x2="120.000000" y2="25.000000" stroke="#0000FF" />
 <line x1="25.000000" y1="28.000000" x2="145.000000" y2="102.000000" stroke="#0000FF" />
 <line x1="50.000000" y1="85.000000" x2="120.000000" y2="25.000000" stroke="#0000FF" />
 <line x1="2.000000" y1="58.000000" x2="77.000000" y2="30.000000" stroke="#0000FF" />
 <line x1="77.000000" y1="30.000000" x2="90.000000" y2="114.000000" stroke="#0000FF" />
 <line x1="90.000000" y1="114.000000" x2="190.000000" y2="91.000000" stroke="#0000FF" />
 <line x1="190.000000" y1="91.000000" x2="157.000000" y2="18.000000" stroke="#0000FF" />
 <circle cx="2.000000" cy="58.000000" r="10.000000" stroke="#FFFFFF" fill="#FFFF00" />
 <circle cx="157.000000" cy="18.000000" r="10.000000" stroke="#FFFFFF" fill="#FFFF00" />
 <circle cx="77.000000" cy="30.000000" r="9.000000" stroke="#AA0000" fill="#DE8787" />
 <circle cx="90.000000" cy="114.000000" r="9.000000" stroke="#AA0000" fill="#DE8787" />
 <circle cx="190.000000" cy="91.000000" r="9.000000" stroke="#AA0000" fill="#DE8787" />
 <circle cx="25.000000" cy="28.000000" r="8.000000" stroke="#D45500" fill="#FF7F2A" />
 <circle cx="50.000000" cy="85.000000" r="8.000000" stroke="#D45500" fill="#FF7F2A" />
 <circle cx="120.000000" cy="25.000000" r="8.000000" stroke="#D45500" fill="#FF7F2A" />
 <circle cx="145.000000" cy="102.000000" r="8.000000" stroke="#D45500" fill="#FF7F2A" />
 <circle cx="175.876376" cy="154.160304" r="3.367824" stroke="#00FF00" fill="#00AA00" />
 <circle cx="45.578026" cy="144.957086" r="2.352289" stroke="#00FF00" fill="#00AA00" />
 <circle cx="165.767374" cy="145.357506" r="3.568401" stroke="#00FF00" fill="#00AA00" />
 <circle cx="108.026464" cy="160.265888" r="3.105400" stroke="#00FF00" fill="#00AA00" />
 <circle cx="57.697250" cy="162.079364" r="2.282616" stroke="#00FF00" fill="#00AA00" />
 <circle cx="18.265044" cy="155.813232" r="2.442473" stroke="#00FF00" fill="#00AA00" />
 <circle cx="58.418374" cy="149.063652" r="2.244591" stroke="#00FF00" fill="#00AA00" />
 <circle cx="93.825577" cy="163.450623" r="3.957479" stroke="#00FF00" fill="#00AA00" />
 <circle cx="107.896245" cy="151.480019" r="2.438544" stroke="#00FF00" fill="#00AA00" />
 <circle cx="178.763263" cy="150.050454" r="3.711387" stroke="#00FF00" fill="#00AA00" />
 <circle cx="48.602181" cy="157.449477" r="2.654068" stroke="#00FF00" fill="#00AA00" />
 <circle cx="153.484727" cy="158.888607" r="2.180110" stroke="#00FF00" fill="#00AA00" />
 <circle cx="21.713747" cy="164.123885" r="2.345429" stroke="#00FF00" fill="#00AA00" />
 <circle cx="112.158852" cy="149.231985" r="3.908805" stroke="#00FF00" fill="#00AA00" />
 <circle cx="109.671349" cy="150.784024" r="3.992721" stroke="#00FF00" fill="#00AA00" />
 <circle cx="178.070503" cy="162.133291" r="2.858901" stroke="#00FF00" fill="#00AA00" />
 <circle cx="119.307883" cy="150.635391" r="3.508139" stroke="#00FF00" fill="#00AA00" />
 <circle cx="186.022605" cy="161.817257" r="3.438125" stroke="#00FF00" fill="#00AA00" />
 <circle cx="137.716309" cy="151.037604" r="3.682062" stroke="#00FF00" fill="#00AA00" />
 <circle cx="171.950852" cy="158.646356" r="2.562495" stroke="#00FF00" fill="#00AA00" />
 <circle cx="83.708067" cy="153.103766" r="2.466115" stroke="#00FF00" fill="#00AA00" />
 <circle cx="32.181921" cy="153.124748" r="3.108922" stroke="#00FF00" fill="#00AA00" />
 <circle cx="99.765241" cy="148.363723" r="3.258491" stroke="#00FF00" fill="#00AA00" />
 <circle cx="193.249809" cy="164.703349" r="2.171131" stroke="#00FF00" fill="#00AA00" />
 <circle cx="134.607485" cy="160.214670" r="2.487113" stroke="#00FF00" fill="#00AA00" />
 <circle cx="124.074843" cy="157.817891" r="3.688973" stroke="#00FF00" fill="#00AA00" />
 <circle cx="45.799389" cy="154.373044" r="3.386114" stroke="#00FF00" fill="#00AA00" />
 <circle cx="191.792042" cy="163.980366" r="3.043623" stroke="#00FF00" fill="#00AA00" />
 <circle cx="133.194481" cy="156.125304" r="2.246433" stroke="#00FF00" fill="#00AA00" />
 <circle cx="91.783074" cy="152.285394" r="3.611680" stroke="#00FF00" fill="#00AA00" />
 <circle cx="95.935753" cy="109.603704" r="1.712841" stroke="#FFFFFF" fill="#B3B3B3" />
 <circle cx="193.560763" cy="121.900401" r="2.168583" stroke="#FFFFFF" fill="#B3B3B3" />
 <circle cx="66.162056" cy="125.312144" r="1.746153" stroke="#FFFFFF" fill="#B3B3B3" />
 <circle cx="201.942499" cy="112.535900" r="2.505776" stroke="#FFFFFF" fill="#B3B3B3" />
 <circle cx="115.066587" cy="130.572869" r="2.158978" stroke="#FFFFFF" fill="#B3B3B3" />
 <circle cx="40.203405" cy="123.696119" r="2.455985" stroke="#FFFFFF" fill="#B3B3B3" />
 <circle cx="157.326745" cy="115.016233" r="1.654782" stroke="#FFFFFF" fill="#B3B3B3" />
 <circle cx="37.917973" cy="137.297625" r="2.339805" stroke="#FFFFFF" fill="#B3B3B3" />
 <circle cx="37.954721" cy="151.916716" r="2.478752" stroke="#FFFFFF" fill="#B3B3B3" />
 <circle cx="63.792900" cy="147.402783" r="2.429900" stroke="#FFFFFF" fill="#B3B3B3" />
 <circle cx="214.273550" cy="124.820425" r="2.587178" stroke="#FFFFFF" fill="#B3B3B3" />
 <circle cx="106.968189" cy="108.841986" r="2.686944" stroke="#FFFFFF" fill="#B3B3B3" />
 <circle cx="172.287929" cy="114.950595" r="2.789076" stroke="#FFFFFF" fill="#B3B3B3" />
 <circle cx="152.600108" cy="142.893006" r="1.709492" stroke="#FFFFFF" fill="#B3B3B3" />
 <circle cx="36.982849" cy="136.746146" r="2.446447" stroke="#FFFFFF" fill="#B3B3B3" />
 <circle cx="106.049470" cy="145.340392" r="2.102859" stroke="#FFFFFF" fill="#B3B3B3" />
 <circle cx="202.696205" cy="146.614867" r="1.923574" stroke="#FFFFFF" fill="#B3B3B3" />
 <circle cx="191.802496" cy="126.786643" r="2.277584" stroke="#FFFFFF" fill="#B3B3B3" />
 <circle cx="137.616488" cy="130.152509" r="2.291480" stroke="#FFFFFF" fill="#B3B3B3" />
 <circle cx="81.770742" cy="142.000232" r="2.438187" stroke="#FFFFFF" fill="#B3B3B3" />
 <circle cx="62.435716" cy="132.026633" r="2.745973" stroke="#FFFFFF" fill="#B3B3B3" />
 <circle cx="171.341103" cy="117.003973" r="1.931350" stroke="#FFFFFF" fill="#B3B3B3" />
 <circle cx="122.867207" cy="113.380380" r="2.040483" stroke="#FFFFFF" fill="#B3B3B3" />
 <circle cx="58.328510" cy="132.618504" r="1.779934" stroke="#FFFFFF" fill="#B3B3B3" />
 <circle cx="103.347167" cy="120.212248" r="2.571131" stroke="#FFFFFF" fill="#B3B3B3" />
 <circle cx="125.841797" cy="110.967026" r="1.588832" stroke="#FFFFFF" fill="#B3B3B3" />
 <circle cx="56.010426" cy="133.758143" r="2.169712" stroke="#FFFFFF" fill="#B3B3B3" />
 <circle cx="179.386864" cy="137.468553" r="2.380879" stroke="#FFFFFF" fill="#B3B3B3" />
 <circle cx="81.431955" cy="117.184946" r="2.621620" stroke="#FFFFFF" fill="#B3B3B3" />
 <circle cx="105.262302" cy="130.873703" r="1.882011" stroke="#FFFFFF" fill="#B3B3B3" />
 <circle cx="78.342762" cy="108.275313" r="1.816619" stroke="#FFFFFF" fill="#B3B3B3" />
 <circle cx="63.408053" cy="137.334435" r="2.010513" stroke="#FFFFFF" fill="#B3B3B3" />
 <circle cx="209.817236" cy="125.001692" r="2.538973" stroke="#FFFFFF" fill="#B3B3B3" />
 <circle cx="153.935733" cy="149.581000" r="1.947160" stroke="#FFFFFF" fill="#B3B3B3" />
 <circle cx="95.439346" cy="126.777440" r="2.243480" stroke="#FFFFFF" fill="#B3B3B3" />
 <circle cx="47.278255" cy="147.333233" r="2.852083" stroke="#FFFFFF" fill="#B3B3B3" />
 <circle cx="87.200792" cy="128.825985" r="1.953013" stroke="#FFFFFF" fill="#B3B3B3" />
 <circle cx="184.893144" cy="110.366645" r="2.130868" stroke="#FFFFFF" fill="#B3B3B3" />
 <circle cx="111.167633" cy="135.625556" r="2.232467" stroke="#FFFFFF" fill="#B3B3B3" />
 <circle cx="211.992571" cy="145.796465" r="2.161672" stroke="#FFFFFF" fill="#B3B3B3" />
 <text x="5.000000" y="5.000000" font-family="arial" stroke="#0000D4" fill="#0000D4" text-anchor="middle" >v_O_v</text>
 <text x="19.322580" y="126.361577" font-family="arial" stroke="#00AA00" fill="#002B22" text-anchor="middle" >|-T-|</text>
 <text x="126.149870" y="178.948398" font-family="arial" stroke="#00AA00" fill="#002B22" text-anchor="middle" >|-T-|</text>
 <text x="161.643495" y="167.324753" font-family="arial" stroke="#00AA00" fill="#002B22" text-anchor="middle" >|-T-|</text>
 <text x="155.098312" y="93.775139" font-family="arial" stroke="#00AA00" fill="#002B22" text-anchor="middle" >|-T-|</text>
 <text x="142.769256" y="48.116584" font-family="arial" stroke="#00AA00" fill="#002B22" text-anchor="middle" >|-T-|</text>
</svg>
